<?xml version="1.0" standalone="no"?>
<!DOCTYPE svg PUBLIC "-//W3C//DTD SVG 1.1//EN" "http://www.w3.org/Graphics/SVG/1.1/DTD/svg11.dtd" >
<svg xmlns="http://www.w3.org/2000/svg">
<metadata></metadata>
<defs>
<font id="voyager_grotesqueregular" horiz-adv-x="1230" >
<font-face units-per-em="2048" ascent="1536" descent="-512" />
<missing-glyph horiz-adv-x="559" />
<glyph horiz-adv-x="0" />
<glyph unicode="&#xd;" horiz-adv-x="1024" />
<glyph unicode=" "  horiz-adv-x="559" />
<glyph unicode="&#x09;" horiz-adv-x="559" />
<glyph unicode="&#xa0;" horiz-adv-x="559" />
<glyph unicode="!" horiz-adv-x="389" d="M117 31v90q0 12 8 21.5t22 9.5h89q14 0 22 -9.5t8 -21.5v-90q0 -12 -8 -21.5t-22 -9.5h-89q-14 0 -22 9t-8 22zM129 842v61v563q0 14 9 22.5t22 8.5h63q12 0 21.5 -8t9.5 -23v-563v-61l-12 -561q0 -14 -9.5 -22.5t-21.5 -8.5h-37q-12 0 -21.5 8t-9.5 23z" />
<glyph unicode="&#x22;" horiz-adv-x="352" d="M6 1247v129q0 12 4 29.5t10 28.5l23 36q6 10 20.5 18.5t26.5 8.5h47q29 0 15 -27l-41 -71q-14 -27 2 -27q18 0 18 -31v-94h-125zM172 1247v129q0 12 4 29.5t12 28.5l21 36q8 10 21.5 18.5t25.5 8.5h47q12 0 17.5 -8t-1.5 -19l-43 -71q-14 -27 3 -27q18 0 18 -31v-94h-125 z" />
<glyph unicode="$" horiz-adv-x="1286" d="M119 279v65v31l4 8l4 8t6 10l8 13q6 10 19.5 18t25.5 8l64 -2q12 0 17 -7t-3 -19l-6 -11q-6 -10 -10 -27.5t-4 -29.5v-31q0 -14 4 -30.5t12 -26.5l59 -104q6 -10 19.5 -18.5t26.5 -8.5h163q14 0 22.5 9t8.5 22v563q0 12 -8 21.5t-23 9.5h-237q-12 0 -25.5 8t-19.5 18 l-113 197q-14 25 -14 57v191q0 33 14 57l113 197q14 27 47 26h235q31 0 31 31v131h129v-131q0 -31 31 -31h201q12 0 25 -8t20 -18l112 -197q6 -10 11.5 -26.5t5.5 -30.5v-66q0 -12 -5.5 -28.5t-11.5 -28.5l-4 -6q-6 -10 -19.5 -18.5t-25.5 -8.5h-65q-29 0 -15 27l4 8 q6 10 11.5 26.5t5.5 28.5v33q0 12 -5.5 29.5t-11.5 27.5l-59 103q-6 10 -19.5 18t-25.5 8h-129q-31 0 -31 -31v-438q0 -12 8.5 -21.5t22.5 -9.5h272q12 0 26.5 -7t20.5 -19l111 -195q8 -10 12 -27.5t4 -29.5v-317q0 -12 -5 -30t-11 -28l-111 -194q-8 -10 -21 -18.5t-26 -8.5 h-272q-14 0 -22.5 -9t-8.5 -22v-131h-129v131q0 12 -8 21.5t-23 9.5h-235q-33 0 -47 27l-113 194q-6 10 -10 27.5t-4 30.5zM244 1063q0 -12 4 -29.5t10 -27.5l59 -103q6 -12 19.5 -19t28.5 -7h163q31 0 31 30v436q0 31 -31 31h-163q-12 0 -26.5 -8t-21.5 -18l-59 -103 q-6 -10 -10 -27.5t-4 -29.5v-125zM688 156q0 -12 8.5 -21.5t22.5 -9.5h201q12 0 25 8t20 19l59 104q6 10 11 26.5t5 30.5v250q0 12 -4 29.5t-12 28.5l-59 102q-6 10 -19.5 18.5t-25.5 8.5h-201q-14 0 -22.5 -9.5t-8.5 -21.5v-563z" />
<glyph unicode="&#x26;" horiz-adv-x="1327" d="M141 279v174q0 12 4.5 29.5t10.5 27.5l112 192q14 29 -4 52l-104 137q-8 10 -13.5 26.5t-5.5 28.5v273q0 12 4.5 29.5t10.5 27.5l112 194q6 10 19.5 18.5t25.5 8.5h510q12 0 26.5 -8t20.5 -19l117 -192q8 -12 12.5 -28.5t4.5 -28.5v-156h-107v90q0 12 -5 29.5t-11 27.5 l-82 134q-6 10 -20.5 18t-26.5 8h-365q-33 0 -47 -26l-59 -103q-6 -10 -10.5 -27.5t-4.5 -29.5v-207q0 -12 5 -27.5t14 -25.5l88 -109q8 -10 22.5 -17t26.5 -7h786q31 0 17 -27l-43 -72q-6 -10 -19.5 -18t-25.5 -8h-17q-14 0 -22 -9.5t-8 -21.5v-358q0 -12 -5.5 -30 t-11.5 -28l-110 -194q-8 -10 -21.5 -18.5t-26.5 -8.5h-602q-12 0 -25.5 8t-19.5 19l-112 194q-6 10 -10.5 27.5t-4.5 30.5zM266 311q0 -29 15 -57l59 -102q6 -10 20.5 -18.5t26.5 -8.5h457q12 0 25.5 8t19.5 19l57 98q6 10 10.5 27.5t4.5 29.5v330q0 12 -8.5 21.5t-22.5 9.5 h-508q-12 0 -25.5 -8.5t-19.5 -18.5l-96 -166q-14 -25 -15 -57v-107z" />
<glyph unicode="(" horiz-adv-x="718" d="M6 279v940q0 12 4 29.5t10 27.5l113 194q6 10 19.5 18.5t25.5 8.5h307v-125h-233q-33 0 -47 -26l-60 -103q-6 -10 -10 -27.5t-4 -29.5v-875q0 -29 14 -57l60 -102q14 -27 47 -27h233v-125h-307q-12 0 -25.5 8t-19.5 19l-113 194q-6 10 -10 27.5t-4 30.5z" />
<glyph unicode=")" horiz-adv-x="718" d="M6 0v125h234q12 0 25.5 8t19.5 19l59 102q6 12 11 28.5t5 28.5v875q0 12 -5 29.5t-11 27.5l-59 103q-6 10 -19.5 18t-25.5 8h-234v125h305q12 0 25.5 -8t19.5 -19l113 -194q6 -10 11 -27.5t5 -29.5v-940q0 -12 -5 -30t-11 -28l-113 -194q-6 -10 -19 -18.5t-26 -8.5h-305z " />
<glyph unicode="," horiz-adv-x="389" d="M7.5 -112.5q-5.5 8.5 2.5 18.5l41 71q14 27 -2 27q-18 0 -18 31v94h125v-129q0 -12 -4.5 -29.5t-12.5 -27.5l-20 -37q-8 -10 -21.5 -18.5t-25.5 -8.5h-47q-12 0 -17.5 8.5z" />
<glyph unicode="." horiz-adv-x="364" d="M6 10v109q0 10 10 10h105q10 0 10 -10v-109q0 -10 -10 -10h-105q-10 0 -10 10z" />
<glyph unicode="/" horiz-adv-x="1705" d="M324 16l886 1467q10 14 27 14h104q18 0 9 -14l-883 -1467q-8 -14 -27 -14h-108q-16 0 -8 14z" />
<glyph unicode="0" horiz-adv-x="1280" d="M6 279v940q0 12 4 29.5t10 27.5l113 194q6 10 19.5 18.5t25.5 8.5h699q33 0 47 -27l110 -194q8 -10 12.5 -27.5t4.5 -29.5v-940q0 -12 -4.5 -30t-12.5 -28l-110 -194q-14 -27 -47 -27h-699q-12 0 -25.5 8t-19.5 19l-113 194q-6 10 -10 27.5t-4 30.5zM131 313q0 -33 4 -41 q4 -4 10.5 0t12.5 15l671 1040q18 25 13 35q-4 4 -14.5 7t-22.5 3h-553q-33 0 -47 -26l-60 -103q-6 -10 -10 -27.5t-4 -29.5v-873zM211 141q12 -16 41 -16h553q12 0 25.5 8t21.5 19l57 104q8 10 12.5 26.5t4.5 30.5v873q0 12 -2 25.5t-6 17.5q-8 14 -23 -12l-676 -1035 q-14 -27 -8 -41z" />
<glyph unicode="1" horiz-adv-x="651" d="M6 1157v62q0 12 4 29.5t10 27.5l113 194q6 10 19.5 18.5t25.5 8.5h209q12 0 21.5 -9t9.5 -22v-1466h-125v1341q0 12 -9.5 21.5t-21.5 9.5h-29q-12 0 -20 -12l-80 -139q-2 -4 -2 -13v-51h-125z" />
<glyph unicode="2" horiz-adv-x="1284" d="M6 279v317q0 29 14 57l113 195q6 10 19.5 18t25.5 8h627q12 0 25.5 8.5t21.5 18.5l59 103q6 10 10.5 27.5t4.5 29.5v125q0 12 -4 29.5t-13 27.5l-59 103q-6 10 -19.5 18t-25.5 8h-477q-33 0 -47 27l-41 71q-14 27 14 27h623q12 0 26.5 -8t20.5 -19l110 -194 q6 -10 11.5 -27.5t5.5 -29.5v-191q0 -14 -4.5 -30.5t-12.5 -26.5l-110 -195q-14 -27 -47 -26l-625 -2q-14 0 -27.5 -7.5t-19.5 -19.5l-60 -103q-6 -10 -10 -27.5t-4 -29.5v-250q0 -12 4 -28.5t10 -26.5l60 -104q14 -27 47 -27h799v-125h-873q-12 0 -25.5 8t-19.5 19 l-113 194q-6 10 -10 27.5t-4 30.5z" />
<glyph unicode="3" horiz-adv-x="1247" d="M6 0v125h799q12 0 25.5 8t19.5 19l59 104q8 10 12.5 26.5t4.5 28.5v189q0 33 -15 57l-96 166q-6 10 -19.5 18.5t-25.5 8.5h-475v124h475q12 0 25.5 8.5t19.5 18.5l59 103q6 10 10.5 27.5t4.5 29.5v125q0 12 -4 29.5t-11 27.5l-59 103q-14 27 -47 26h-444q-12 0 -25.5 8.5 t-19.5 18.5l-43 71q-6 10 -1 18.5t17 8.5h590q12 0 25.5 -8t19.5 -19l112 -194q6 -10 10.5 -27.5t4.5 -29.5v-191q0 -33 -15 -57l-75 -133q-14 -27 0 -54l110 -192q8 -10 12.5 -27.5t4.5 -29.5v-256q0 -12 -4.5 -30t-12.5 -28l-110 -194q-14 -27 -47 -27h-871z" />
<glyph unicode="4" horiz-adv-x="1239" d="M12 848q-14 25 0 53l330 569q6 10 19.5 18.5t25.5 8.5h84q29 0 14 -27l-329 -569q-14 -27 16 -27h678q12 0 21.5 8.5t9.5 22.5v592h125v-1497h-125v719q0 12 -9.5 21.5t-21.5 9.5h-750q-14 0 -27.5 7t-19.5 19z" />
<glyph unicode="5" horiz-adv-x="1247" d="M6 279v96h125v-64q0 -12 4 -28.5t10 -26.5l60 -104q14 -27 47 -27h553q12 0 25.5 8t19.5 19l59 104q6 10 11.5 26.5t5.5 28.5v250q0 12 -4 29.5t-13 27.5l-57 103q-8 12 -21.5 19.5t-25.5 7.5l-768 2q-31 0 -31 30v439q0 12 4 29.5t10 27.5l113 194q6 10 19.5 18.5 t25.5 8.5h662q29 0 14 -27l-41 -71q-6 -10 -19.5 -18.5t-25.5 -8.5h-516q-33 0 -47 -26l-60 -103q-6 -10 -10 -27.5t-4 -29.5v-281q0 -31 31 -31h715q33 0 47 -26l110 -195q8 -12 12.5 -28.5t4.5 -28.5v-317q0 -12 -5.5 -30t-11.5 -28l-110 -194q-6 -10 -20.5 -18.5 t-26.5 -8.5h-697q-33 0 -47 27l-113 194q-6 10 -10 27.5t-4 30.5z" />
<glyph unicode="6" horiz-adv-x="1200" d="M6 279v940q0 12 4 29.5t10 27.5l113 194q6 10 19.5 18.5t25.5 8.5h627q12 0 17 -8t-1 -19l-43 -71q-6 -10 -19.5 -18.5t-25.5 -8.5h-481q-33 0 -47 -26l-60 -103q-6 -10 -10 -27.5t-4 -29.5v-281q0 -12 8 -21.5t23 -9.5h715q12 0 26.5 -8t20.5 -18l110 -195 q6 -12 11.5 -28.5t5.5 -28.5v-317q0 -12 -5.5 -30t-11.5 -28l-110 -194q-8 -10 -21.5 -18.5t-25.5 -8.5h-699q-12 0 -25.5 8t-19.5 19l-113 194q-6 10 -10 27.5t-4 30.5zM131 313q0 -33 14 -57l60 -104q14 -27 47 -27h553q12 0 25.5 8t19.5 19l59 104q6 10 11.5 26.5 t5.5 30.5v248q0 12 -4 29.5t-13 27.5l-57 103q-8 12 -21.5 19.5t-25.5 7.5l-641 2q-12 0 -21.5 -9.5t-9.5 -21.5z" />
<glyph unicode="7" horiz-adv-x="1247" d="M6 1405v61q0 31 31 31h837q12 0 25.5 -8t20.5 -19l114 -192q14 -27 0 -53l-694 -1198q-14 -27 -47 -27h-86q-29 0 -14 27l694 1196q8 10 8 26.5t-6 26.5l-41 72q-6 10 -19.5 18t-25.5 8h-766q-12 0 -21.5 9.5t-9.5 21.5z" />
<glyph unicode="8" horiz-adv-x="1214" d="M6 279v256q0 12 4 29.5t10 27.5l113 192q14 27 0 54l-76 133q-6 10 -11 26.5t-5 30.5v191q0 12 5 29.5t11 27.5l113 194q6 10 19.5 18.5t25.5 8.5h627q12 0 25.5 -8t19.5 -19l112 -194q6 -10 10.5 -27.5t4.5 -29.5v-191q0 -33 -15 -57l-75 -133q-14 -27 0 -54l110 -192 q6 -10 11.5 -27.5t5.5 -29.5v-256q0 -12 -5.5 -30t-11.5 -28l-110 -194q-6 -10 -20.5 -18.5t-26.5 -8.5h-699q-12 0 -25.5 8t-19.5 19l-113 194q-6 10 -10 27.5t-4 30.5zM131 311q0 -12 4 -28.5t10 -26.5l60 -104q14 -27 47 -27h553q12 0 25.5 8t19.5 19l59 104 q8 10 12.5 26.5t4.5 28.5v189q0 14 -4 30.5t-13 26.5l-94 166q-6 10 -19.5 18.5t-25.5 8.5h-483q-12 0 -25.5 -8.5t-19.5 -18.5l-97 -166q-14 -25 -14 -57v-189zM166 1061q0 -12 5 -29.5t11 -27.5l60 -103q6 -10 19 -18.5t26 -8.5h481q33 0 47 27l59 103q6 10 10.5 27.5 t4.5 29.5v125q0 12 -4 29.5t-11 27.5l-59 103q-14 27 -47 26h-481q-12 0 -25.5 -8t-19.5 -18l-60 -103q-6 -10 -11 -27.5t-5 -29.5v-125z" />
<glyph unicode="9" horiz-adv-x="1280" d="M6 1001v218q0 12 4 29.5t10 27.5l113 194q6 10 19.5 18.5t25.5 8.5h699q12 0 25 -8t22 -19l110 -194q6 -10 11.5 -27.5t5.5 -29.5v-940q0 -12 -5.5 -30t-11.5 -28l-110 -194q-6 -10 -20.5 -18.5t-26.5 -8.5l-752 2q-31 0 -16 27l41 69q6 10 20 18.5t27 8.5h608 q12 0 25.5 8t19.5 19l59 104q8 10 12.5 26.5t4.5 28.5v381q0 12 -9.5 21.5t-21.5 9.5h-717q-12 0 -25.5 8t-19.5 19l-113 194q-14 29 -14 57zM131 1036q0 -12 4 -29.5t10 -27.5l60 -102q6 -12 19.5 -19.5t27.5 -7.5l639 -2q14 0 22.5 9t8.5 22l4 307q0 12 -5.5 29.5 t-11.5 27.5l-59 103q-6 10 -19.5 18t-25.5 8h-553q-33 0 -47 -26l-60 -103q-6 -10 -10 -27.5t-4 -29.5v-150z" />
<glyph unicode="=" horiz-adv-x="1189" d="M14 545l54 96q12 16 26 16l852 -2q14 0 8 -16l-55 -94q-8 -16 -27 -17h-849q-16 0 -9 17zM14 856l54 96q10 16 26 17l852 -2q14 0 8 -15l-55 -96q-8 -14 -27 -14h-849q-16 0 -9 14z" />
<glyph unicode="?" horiz-adv-x="1206" d="M108 1488.5q5 8.5 17 8.5h774q12 0 26.5 -8t20.5 -19l111 -194q8 -12 12 -28.5t4 -28.5v-189q0 -14 -4 -30.5t-12 -26.5l-113 -199q-6 -10 -19.5 -18t-25.5 -8l-266 2q-33 0 -43 -21q-4 -8 -7 -22.5t-3 -26.5v-496h-125v533v33l4 8l4 8t6 10l43 72q4 6 6 10l4 8l4 8h33 h270q12 0 25.5 8.5t19.5 18.5l60 103q14 25 14 57l-2 125q0 12 -4 29.5t-10 27.5l-60 103q-6 12 -19 19t-26 7h-630q-12 0 -25.5 8.5t-19.5 18.5l-41 71q-8 10 -3 18.5zM455 0v125h125v-125h-125z" />
<glyph unicode="A" horiz-adv-x="1280" d="M0 0v686q0 14 5 30.5t11 26.5l420 727q6 10 19.5 18.5t25.5 8.5h84q12 0 25.5 -8t19.5 -19l420 -727q6 -10 11.5 -26.5t5.5 -30.5v-686h-125v469q0 12 -9.5 21.5t-21.5 9.5h-619q-12 0 -17 8t1 18l41 72q14 27 47 27h547q12 0 21.5 8t9.5 20t-5.5 29.5t-11.5 28.5 l-366 635q-6 10 -15.5 10t-15.5 -10l-367 -635q-6 -10 -11 -27.5t-5 -30.5v-653h-125z" />
<glyph unicode="B" horiz-adv-x="1271" d="M6 31v1435q0 31 31 31h805q12 0 25.5 -8t19.5 -19l112 -194q6 -10 10.5 -27.5t4.5 -29.5v-191q0 -33 -15 -57l-75 -133q-14 -27 0 -54l112 -192q14 -29 15 -57v-256q0 -12 -4.5 -30t-10.5 -28l-112 -194q-14 -27 -47 -27h-840q-14 0 -22.5 9t-8.5 22zM131 156 q0 -12 8 -21.5t23 -9.5h643q12 0 25.5 8t19.5 19l61 102q14 29 15 57v189q0 33 -15 57l-96 166q-6 10 -19.5 18.5t-25.5 8.5h-453q-12 0 -26.5 7t-20.5 17l-47 74q-8 10 -3 18t18 8h532q12 0 25.5 8.5t19.5 18.5l59 103q6 10 10.5 27.5t4.5 29.5v125q0 12 -4 29.5t-11 27.5 l-59 103q-14 26 -45 26h-2h-606q-14 0 -22.5 -9t-8.5 -22v-1185z" />
<glyph unicode="C" horiz-adv-x="1177" d="M6 279v940q0 12 4 29.5t10 27.5l113 194q6 10 19.5 18.5t25.5 8.5h699q12 0 25 -8t20 -19l112 -194q6 -10 11.5 -27.5t5.5 -29.5v-99h-125v66q0 12 -5.5 29.5t-11.5 27.5l-59 103q-6 10 -19.5 18t-25.5 8h-553q-33 0 -47 -26l-60 -103q-6 -10 -10 -27.5t-4 -29.5v-875 q0 -29 14 -57l60 -102q14 -27 47 -27h553q12 0 26.5 8t20.5 19l59 102q14 29 15 57v58h125v-90q0 -12 -4.5 -30t-10.5 -28l-112 -194q-14 -27 -47 -27h-699q-12 0 -25.5 8t-19.5 19l-113 194q-6 10 -10 27.5t-4 30.5z" />
<glyph unicode="D" horiz-adv-x="1216" d="M6 31v1435q0 31 31 31h840q33 0 47 -27l112 -194q6 -10 10.5 -27.5t4.5 -29.5v-940q0 -12 -4.5 -30t-10.5 -28l-112 -194q-14 -27 -47 -27h-840q-14 0 -22.5 9t-8.5 22zM131 156q0 -12 8 -21.5t23 -9.5h643q12 0 26.5 8t20.5 19l59 102q6 10 10.5 27.5t4.5 29.5v875 q0 12 -4 29.5t-11 27.5l-59 103q-6 10 -20.5 18t-26.5 8h-643q-14 0 -22.5 -9t-8.5 -22v-1185z" />
<glyph unicode="E" horiz-adv-x="1212" d="M6 31v1188q0 12 4 29.5t10 27.5l113 194q6 10 19.5 18.5t25.5 8.5h801v-125h-729q-12 0 -25.5 -8t-19.5 -18l-60 -103q-6 -10 -10 -27.5t-4 -29.5v-281q0 -31 31 -31h678q29 0 14 -26l-49 -74q-14 -25 -47 -24h-596q-14 0 -22.5 -9.5t-8.5 -21.5v-563q0 -12 8 -21.5 t23 -9.5h817v-125h-942q-14 0 -22.5 9t-8.5 22z" />
<glyph unicode="F" horiz-adv-x="1079" d="M6 0v1219q0 33 14 57l113 194q6 10 19.5 18.5t25.5 8.5h727v-125h-655q-12 0 -25.5 -8t-19.5 -18l-60 -103q-6 -10 -10 -27.5t-4 -29.5v-281q0 -12 8 -21.5t21 -9.5h540q12 0 25.5 -8t19.5 -18l37 -70q14 -29 -16 -28h-606q-29 0 -29 -31v-719h-125z" />
<glyph unicode="G" horiz-adv-x="1280" d="M6 279v940q0 12 4 29.5t10 27.5l113 194q6 10 19.5 18.5t25.5 8.5h699q33 0 47 -27l110 -194q8 -10 12.5 -27.5t4.5 -29.5v-97h-125v64q0 12 -4 29.5t-11 27.5l-59 103q-8 10 -21.5 18t-25.5 8h-555q-12 0 -25.5 -8t-19.5 -18l-60 -103q-6 -10 -10 -27.5t-4 -29.5v-875 q0 -29 14 -57l60 -102q6 -10 19.5 -18.5t25.5 -8.5h555q12 0 25.5 8t21.5 19l59 102q14 29 15 57v408q0 12 -9.5 21.5t-21.5 9.5h-272q-29 0 -48 24l-47 74q-14 27 15 26h477q12 0 21.5 -9t9.5 -21v-565q0 -12 -4.5 -30t-12.5 -28l-110 -194q-14 -27 -47 -27h-699 q-12 0 -25.5 8t-19.5 19l-113 194q-6 10 -10 27.5t-4 30.5z" />
<glyph unicode="H" horiz-adv-x="1284" d="M6 0v1501h125v-598q0 -29 31 -29h608q12 0 25.5 -8t19.5 -18l41 -72q12 -27 -14 -26h-680q-14 0 -22.5 -9.5t-8.5 -21.5v-719h-125zM926 0v1501h125v-1501h-125z" />
<glyph unicode="I" horiz-adv-x="702" d="M-18 8q-2 4 -2 8q0 5 4 11l43 71q6 10 19 18.5t26 8.5h104q12 0 21.5 9t9.5 22v1185q0 12 -9.5 21.5t-21.5 9.5h-149q-12 0 -17.5 8.5t0.5 18.5l41 71q6 10 19.5 18.5t25.5 8.5h441q19 0 19 -12q0 -6 -5 -15l-47 -73q-6 -10 -19.5 -17.5t-25.5 -7.5h-99q-12 0 -20 -9 t-8 -22v-1185q0 -12 8 -21.5t20 -9.5h162q29 0 15 -27l-43 -71q-14 -27 -48 -27h-446q-12 0 -18 8z" />
<glyph unicode="J" horiz-adv-x="1079" d="M6 283v96h125v-64q0 -12 4 -29.5t10 -27.5l60 -102q6 -10 19.5 -18.5t25.5 -8.5h350q12 0 25.5 8t19.5 19l60 102q6 10 11 27.5t5 29.5v1031q0 12 -9.5 21t-21.5 9h-166q-33 0 -47 27l-41 72q-6 10 -1 18t18 8h362q12 0 21.5 -9t9.5 -22v-1187q0 -12 -5 -29.5t-12 -28.5 l-110 -194q-6 -10 -20.5 -18.5t-26.5 -8.5h-494q-12 0 -25.5 8t-19.5 19l-113 194q-6 10 -10 27.5t-4 30.5z" />
<glyph unicode="K" horiz-adv-x="1216" d="M6 4v1497h125v-1497h-125zM220 868q5 8 18 9h307q33 0 47 26l242 418q6 10 10 27.5t4 29.5v123h125v-158q0 -12 -4 -28.5t-11 -26.5l-256 -444q-14 -25 0 -53l332 -574q6 -10 10.5 -27.5t4.5 -29.5v-156h-125v123q0 29 -15 57l-313 541q-6 10 -19.5 18.5t-25.5 8.5h-242 q-12 0 -25.5 8t-21.5 18l-41 72q-3 5 -3 10q0 4 2 8z" />
<glyph unicode="L" horiz-adv-x="993" d="M6 281v188v61v971h125v-1186q0 -33 14 -57l60 -102q6 -10 19.5 -18.5t25.5 -8.5h422q14 0 22 9t8 22v215h125v-340q0 -31 -30 -31h-619q-12 0 -25.5 8t-19.5 19l-113 192q-6 10 -10 27.5t-4 30.5z" />
<glyph unicode="M" horiz-adv-x="1429" d="M6 0v1466q0 31 31 31h139q12 0 26.5 -8t20.5 -19l363 -628q6 -10 15 -10.5t15 10.5l363 628q6 10 19.5 18.5t25.5 8.5h141q12 0 21.5 -8t9.5 -23v-1466h-125v1350q0 12 -5 13t-11 -9l-367 -635q-14 -29 0 -53l82 -144q14 -27 -16 -26h-82q-12 0 -25.5 8t-19.5 18 l-482 832q-14 25 -14 -4v-1350h-125z" />
<glyph unicode="N" horiz-adv-x="1265" d="M8 0v1466q0 31 31 31h100q12 0 25.5 -8t19.5 -19l729 -1259q14 -25 15 4v973q0 12 -4 28.5t-11 26.5l-131 227q-8 10 -3 18.5t18 8.5h82q33 0 47 -27l110 -192q8 -10 12.5 -27.5t4.5 -29.5v-1190q0 -12 -9.5 -21.5t-21.5 -9.5h-100q-33 0 -48 27l-727 1259q-6 10 -10 -1 t-4 -87v-1198h-125z" />
<glyph unicode="O" horiz-adv-x="1214" d="M8 279v940q0 12 4 29.5t11 27.5l112 194q6 10 19.5 18.5t25.5 8.5h699q33 0 47 -27l112 -194q6 -10 10.5 -27.5t4.5 -29.5v-940q0 -12 -4.5 -30t-10.5 -28l-112 -194q-14 -27 -47 -27h-699q-12 0 -25.5 8t-19.5 19l-112 194q-6 10 -10.5 27.5t-4.5 30.5zM133 311 q0 -29 14 -57l60 -102q14 -27 47 -27h553q12 0 26.5 8t20.5 19l59 102q14 29 15 57v875q0 12 -4 29.5t-11 27.5l-59 103q-6 10 -20.5 18t-26.5 8h-553q-33 0 -47 -26l-60 -103q-6 -10 -10 -27.5t-4 -29.5v-875z" />
<glyph unicode="P" horiz-adv-x="1232" d="M6 0v1466q0 14 9.5 22.5t21.5 8.5h840q33 0 47 -27l112 -194q6 -10 10.5 -27.5t4.5 -29.5v-191q0 -33 -15 -57l-112 -195q-6 -12 -19.5 -19t-25.5 -7h-373q-31 0 -45 26l-37 70q-6 12 -1 20t17 8h365q33 0 47 27l59 103q6 10 10.5 27.5t4.5 29.5v125q0 12 -4 29.5 t-11 27.5l-59 103q-6 10 -20.5 18t-26.5 8h-643q-14 0 -22.5 -9t-8.5 -22v-1341h-125z" />
<glyph unicode="Q" d="M6 279v942q0 12 4 29.5t10 27.5l113 195q6 10 19.5 18t25.5 8h701q12 0 25.5 -8t21.5 -18l110 -195q6 -10 11.5 -27.5t5.5 -29.5v-942q0 -12 -5.5 -30t-11.5 -28l-110 -194q-8 -10 -21.5 -18.5t-25.5 -8.5h-27q-12 0 -17.5 -8t1.5 -19l61 -106q12 -27 -14 -27h-84 q-12 0 -25.5 7.5t-19.5 19.5l-62 106q-6 10 -19.5 18.5t-25.5 8.5h-469q-12 0 -25.5 8t-19.5 19l-113 194q-6 10 -10 27.5t-4 30.5zM131 311q0 -29 14 -57l60 -102q14 -27 47 -27h323q29 0 15 27l-98 174q-8 10 -3 18t17 8h82q33 0 47 -26l108 -189q6 -12 21 -12h55 q16 0 27 12l65 117q6 12 11.5 28.5t5.5 28.5v875q0 14 -5 30.5t-12 26.5l-59 105q-6 10 -19.5 18t-25.5 8h-555q-33 0 -47 -26l-60 -105q-14 -25 -14 -57v-875z" />
<glyph unicode="R" d="M6 0v1466q0 31 31 31h840q33 0 47 -27l112 -194q6 -10 10.5 -27.5t4.5 -29.5v-191q0 -33 -15 -57l-112 -195q-6 -12 -19.5 -19t-25.5 -7l-123 -2q-12 0 -17.5 -7.5t0.5 -17.5l295 -510q6 -10 11.5 -27.5t5.5 -29.5v-156h-125v123q0 12 -4 29.5t-13 27.5l-385 668 q-14 27 15 26h266q33 0 47 27l59 103q6 10 10.5 27.5t4.5 29.5v125q0 12 -4 29.5t-11 27.5l-59 103q-6 10 -20.5 18t-26.5 8h-643q-14 0 -22.5 -9t-8.5 -22v-1341h-125z" />
<glyph unicode="S" d="M6 279v96h125v-64q0 -29 14 -57l60 -102q6 -10 20.5 -18.5t26.5 -8.5h553q12 0 25.5 8t21.5 19l59 102q14 29 15 57v250q0 12 -4 29.5t-11 27.5l-59 103q-6 12 -20.5 19.5t-26.5 7.5l-627 2q-12 0 -25.5 7t-19.5 19l-113 195q-14 25 -14 57v191q0 12 4 29.5t10 27.5 l113 194q6 10 19.5 18.5t25.5 8.5h627q12 0 26.5 -8t20.5 -19l111 -194q6 -10 11 -27.5t5 -29.5v-97h-125v64q0 12 -4 29.5t-12 27.5l-60 103q-6 10 -19.5 18t-25.5 8h-481q-33 0 -47 -26l-60 -103q-6 -10 -10 -27.5t-4 -29.5v-125q0 -12 4 -29.5t10 -27.5l60 -103 q14 -27 47 -27h625q33 0 47 -26l112 -197q6 -10 10.5 -26.5t4.5 -28.5v-317q0 -12 -4.5 -30t-12.5 -28l-110 -194q-14 -27 -47 -27h-697q-33 0 -47 27l-113 194q-6 10 -10 27.5t-4 30.5z" />
<glyph unicode="T" d="M6 1122v187q0 12 4 29.5t10 27.5l60 104q6 10 20.5 18.5t26.5 8.5h803q12 0 25.5 -8t19.5 -19l61 -104q6 -10 10.5 -27.5t4.5 -29.5v-187h-125v154q0 33 -15 57l-8 15q-6 10 -19.5 18t-25.5 8h-246q-14 0 -22 -9t-8 -22v-1343h-125v1343q0 12 -9.5 21.5t-21.5 9.5h-227 q-12 0 -25.5 -8t-19.5 -18l-9 -15q-14 -25 -14 -57v-154h-125z" />
<glyph unicode="U" horiz-adv-x="1216" d="M6 279v1218h125v-1186q0 -29 14 -57l60 -102q14 -27 47 -27h553q12 0 26.5 8t20.5 19l59 102q14 29 15 57v1186h125v-1218q0 -12 -4.5 -30t-10.5 -28l-112 -194q-14 -27 -47 -27h-699q-12 0 -25.5 8t-19.5 19l-113 194q-6 10 -10 27.5t-4 30.5z" />
<glyph unicode="V" d="M6 811v686h125v-653q0 -12 4 -29.5t10 -28.5l367 -634q6 -10 15.5 -10.5t15.5 10.5l368 634q6 10 10.5 27.5t4.5 30.5v653h125v-686q0 -12 -4.5 -29.5t-12.5 -27.5l-418 -727q-8 -10 -21 -18.5t-26 -8.5h-82q-33 0 -47 27l-420 727q-6 10 -10 27.5t-4 29.5z" />
<glyph unicode="W" horiz-adv-x="1841" d="M6 811v686h125v-653q0 -12 4 -29.5t10 -28.5l367 -634q6 -10 15.5 -10.5t15.5 10.5l159 274q14 27 0 53l-159 275q-6 10 -10.5 27.5t-4.5 29.5v164h125v-131q0 -12 4.5 -29.5t10.5 -28.5l106 -182q6 -10 15.5 -10t15.5 10l106 182q6 10 10.5 27.5t4.5 30.5v131h125v-164 q0 -12 -4.5 -29.5t-12.5 -27.5l-157 -275q-14 -27 0 -53l157 -274q16 -25 31 0l369 634q6 10 10 27.5t4 30.5v653h125v-686q0 -12 -4 -29.5t-10 -27.5l-420 -727q-8 -10 -21.5 -18.5t-25.5 -8.5h-82q-33 0 -47 27l-158 274q-6 10 -15.5 10t-15.5 -10l-158 -274 q-8 -10 -21 -18.5t-26 -8.5h-82q-33 0 -47 27l-420 727q-6 10 -10 27.5t-4 29.5z" />
<glyph unicode="X" d="M6 0v219q0 12 5 27.5t16 25.5l397 453q10 10 10 23.5t-10 23.5l-397 453q-10 10 -15.5 25.5t-5.5 27.5v219h125v-172q0 -12 5 -27.5t16 -25.5l356 -406q8 -10 19.5 -10t21.5 10l356 406q10 10 15.5 25.5t5.5 27.5v172h125v-219q0 -12 -5.5 -27.5t-15.5 -25.5l-399 -453 q-18 -23 0 -47l399 -453q10 -10 15.5 -25.5t5.5 -27.5v-219h-125v172q0 12 -5.5 27.5t-15.5 25.5l-356 406q-10 10 -21.5 10t-19.5 -10l-356 -406q-10 -10 -15.5 -25.5t-5.5 -27.5v-172h-125z" />
<glyph unicode="Y" horiz-adv-x="1232" d="M6 1278v219h125v-172q0 -12 5 -27.5t16 -25.5l335 -381q8 -10 19.5 -10t21.5 10l336 381q8 10 14.5 25.5t6.5 27.5v172h125v-219q0 -12 -6.5 -27.5t-14.5 -25.5l-399 -453q-8 -10 -14.5 -25.5t-6.5 -27.5v-719h-125v719q0 12 -5 27.5t-15 25.5l-397 453 q-10 10 -15.5 25.5t-5.5 27.5z" />
<glyph unicode="Z" horiz-adv-x="1284" d="M6 31v188q0 12 5 27.5t16 25.5l446 510q10 10 21.5 22.5t19.5 22.5l391 445q10 10 15.5 25.5t5.5 27.5v16q0 12 -9.5 21.5t-21.5 9.5l-596 2q-29 0 -51 -22l-47 -52q-10 -10 -24.5 -16t-26.5 -6h-105q-12 0 -16 6t6 16l153 175q22 22 50 22h2h780q12 0 21.5 -8t9.5 -23 v-188q0 -12 -5.5 -27.5t-15.5 -25.5l-878 -1000q-10 -10 -15.5 -25.5t-5.5 -27.5v-16q0 -12 8 -21.5t23 -9.5h600q12 0 26.5 5t24.5 15l47 52q23 23 51 22h105q12 0 16 -6t-6 -16l-154 -174q-10 -10 -24 -16.5t-27 -6.5h-784q-14 0 -22.5 9t-8.5 22z" />
<glyph unicode="&#xbf;" horiz-adv-x="1206" d="M6 281v188q0 12 4 29.5t10 27.5l113 197q6 10 20.5 18.5t26.5 8.5l266 -2q12 0 24.5 6t16.5 14t8.5 22.5t4.5 26.5v496h125v-533v-30v-2q-4 -4 -7 -9q-4 -4 -5 -9t-5 -9l-41 -72q-4 -6 -7 -10t-5 -8q-4 -4 -4 -8h-31h-270q-12 0 -26.5 -8.5t-20.5 -18.5l-58 -100 q-6 -10 -10 -27.5t-4 -30.5v-127q0 -12 5 -29.5t11 -27.5l58 -102q14 -27 47 -27h629q33 0 47 -27l41 -71q14 -27 -15 -27h-776q-12 0 -25.5 8t-19.5 19l-113 196q-14 25 -14 58zM500 1372v125h125v-125h-125z" />
<glyph unicode="&#xd1;" horiz-adv-x="1236" d="M6 0v1468q0 12 8.5 21.5t22.5 9.5h100q12 0 25.5 -8t21.5 -18l727 -1262q6 -10 11.5 -9t5.5 13v973q0 12 -5 29.5t-12 27.5l-131 228q-14 27 15 26h84q12 0 25.5 -8t19.5 -18l112 -193q6 -12 11.5 -28.5t5.5 -28.5v-1192q0 -12 -9.5 -21.5t-21.5 -9.5h-102q-12 0 -25.5 8 t-20.5 19l-729 1261q-14 25 -14 -4v-1284h-125zM206 1701.5q5 8.5 17 8.5h389q12 0 26.5 -8t20.5 -19l41 -71q6 -10 1 -18.5t-17 -8.5h-389q-12 0 -25.5 8.5t-19.5 18.5l-41 71q-8 10 -3 18.5z" />
<glyph unicode="&#x2000;" horiz-adv-x="855" />
<glyph unicode="&#x2001;" horiz-adv-x="1710" />
<glyph unicode="&#x2002;" horiz-adv-x="855" />
<glyph unicode="&#x2003;" horiz-adv-x="1710" />
<glyph unicode="&#x2004;" horiz-adv-x="570" />
<glyph unicode="&#x2005;" horiz-adv-x="427" />
<glyph unicode="&#x2006;" horiz-adv-x="285" />
<glyph unicode="&#x2007;" horiz-adv-x="285" />
<glyph unicode="&#x2008;" horiz-adv-x="213" />
<glyph unicode="&#x2009;" horiz-adv-x="342" />
<glyph unicode="&#x200a;" horiz-adv-x="95" />
<glyph unicode="&#x201c;" horiz-adv-x="1705" d="M6 1247v129q0 12 4 29.5t10 28.5l23 36q6 10 20.5 18.5t26.5 8.5h47q29 0 15 -27l-41 -71q-14 -27 2 -27q18 0 18 -31v-94h-125zM172 1247v129q0 12 4 29.5t12 28.5l21 36q8 10 21.5 18.5t25.5 8.5h47q12 0 17.5 -8t-1.5 -19l-43 -71q-14 -27 3 -27q18 0 18 -31v-94h-125 z" />
<glyph unicode="&#x201d;" horiz-adv-x="1705" d="M7.5 1255.5q-5.5 8.5 2.5 18.5l41 72q14 27 -2 26q-8 0 -13 9.5t-5 21.5v94h125v-127q0 -14 -4.5 -30.5t-12.5 -26.5l-20 -39q-8 -10 -21.5 -18.5t-25.5 -8.5h-47q-12 0 -17.5 8.5zM176 1274l41 72q14 27 -2 26q-8 0 -13 9.5t-5 21.5v94h125v-127q0 -33 -15 -57l-22 -39 q-14 -27 -47 -27h-48q-29 0 -14 27z" />
<glyph unicode="&#x202f;" horiz-adv-x="342" />
<glyph unicode="&#x205f;" horiz-adv-x="427" />
<glyph unicode="&#x25fc;" horiz-adv-x="1024" d="M0 0z" />
</font>
</defs>
</svg>
