<svg xmlns="http://www.w3.org/2000/svg" width="144" height="144" viewBox="0 0 144 144"><path fill="#fff" d="M129.104 69.516h-24.826v-24.83h24.826v24.83zm0 29.796h-24.826v-24.83h24.826v24.83zm0 29.793h-24.826v-24.827h24.826v24.827zm-29.791-89.383h-24.826v-24.827h24.826v24.827zm-.001 59.59h-24.828v-24.83h24.827v24.83zm0 29.793h-24.828v-24.827h24.827v24.827zm-29.791-89.383h-24.827v-24.827h24.826v24.827zm-.003 29.794h-24.828v-24.834h24.827v24.834zm0 59.589h-24.828v-24.827h24.827v24.827zm-29.792-89.383h-24.827v-24.827h24.826v24.827zm-.002 29.794h-24.827v-24.834h24.827v24.834zm0 29.796h-24.827v-24.83h24.827v24.83zm100.2-99.312h-135.848c-2.242 0-4.076 1.833-4.076 4.073v135.849c0 2.245 1.834 4.078 4.076 4.078h135.848c2.244 0 4.076-1.833 4.076-4.078v-135.849c0-2.24-1.832-4.073-4.076-4.073"/></svg>