<?xml version="1.0" encoding="utf-8"?>
<!-- Generator: Adobe Illustrator 16.0.0, SVG Export Plug-In . SVG Version: 6.00 Build 0)  -->
<!DOCTYPE svg PUBLIC "-//W3C//DTD SVG 1.1//EN" "http://www.w3.org/Graphics/SVG/1.1/DTD/svg11.dtd">
<svg version="1.1" id="Layer_1" xmlns="http://www.w3.org/2000/svg" xmlns:xlink="http://www.w3.org/1999/xlink" x="0px" y="0px"
	 width="144.206px" height="111.579px" viewBox="-104.628 -103.305 144.206 111.579"
	 enable-background="new -104.628 -103.305 144.206 111.579" xml:space="preserve">
<path fill="#FFB736" d="M36.425-30.764c0,0,3.618,7.409,3.103,14.818C39.009-8.537,37.804-3.54,38.32-0.956
	c0.517,2.585-0.13,4.48-0.755,5.169c-0.623,0.689,0.065,2.929-2.001,3.446c-2.068,0.517-1.379,1.723-29.465-1.895
	c-28.086-3.618-46.695-3.102-57.033,0.689c-10.339,3.79-37.219-0.862-38.942-5.687c-1.722-4.824-4.651-5.072-6.203-12.013
	c-1.551-6.94-19.471-30.375,1.723-65.181c0,0-1.377-5.168-0.171-8.787c1.206-3.618,8.098-2.584,13.095-4.824
	c4.997-2.24,16.025-13.268,45.92-13.268c29.894,0,42.989,17.747,50.571,28.775C22.64-63.503,36.425-30.764,36.425-30.764z"/>
<g>
	<defs>
		<path id="SVGID_1_" d="M35.545-30.897c0,0,3.59,7.351,3.078,14.7c-0.514,7.352-1.71,12.309-1.197,14.872
			c0.513,2.565-0.129,4.445-0.749,5.129c-0.618,0.683,0.064,2.905-1.986,3.417c-2.052,0.513-1.368,1.709-29.231-1.879
			c-27.863-3.59-46.326-3.078-56.582,0.684c-10.257,3.76-36.924-0.855-38.633-5.641c-1.709-4.787-4.615-5.032-6.154-11.918
			s-19.317-30.135,1.709-64.665c0,0-1.367-5.128-0.171-8.718s8.034-2.564,12.992-4.786s15.897-13.163,45.557-13.163
			c29.658,0,42.649,17.607,50.17,28.547C21.87-63.376,35.545-30.897,35.545-30.897z"/>
	</defs>
	<clipPath id="SVGID_2_">
		<use xlink:href="#SVGID_1_"  overflow="visible"/>
	</clipPath>
	<polygon clip-path="url(#SVGID_2_)" fill="#B57F25" points="-84.622,-21.809 -106.4,-0.03 -98.993,11.358 -81.164,-6.472 
		-82.99,-20.382 	"/>
	<polyline clip-path="url(#SVGID_2_)" fill="#BB8326" points="-89.444,-73.973 -125.735,-37.683 -112.711,8.077 -85.276,-19.357 	
		"/>
	<polygon clip-path="url(#SVGID_2_)" fill="#C68B28" points="-88.92,-83.106 -110.698,-61.328 -107.273,-56.144 -89.444,-73.973 
		-87.288,-81.679 	"/>
	<polygon clip-path="url(#SVGID_2_)" fill="#C68B28" points="-70.97,-18.315 -92.748,3.463 13.516,18.808 31.345,0.979 
		-69.338,-16.888 	"/>
</g>
<linearGradient id="SVGID_3_" gradientUnits="userSpaceOnUse" x1="-98.5112" y1="-47.5156" x2="33.4604" y2="-47.5156">
	<stop  offset="0" style="stop-color:#FAE548"/>
	<stop  offset="0.2907" style="stop-color:#FAD500"/>
	<stop  offset="1" style="stop-color:#FAD500"/>
</linearGradient>
<path fill="url(#SVGID_3_)" d="M30.575-32.186c0,0,3.312,6.781,2.839,13.561C32.94-11.844,31.837-7.271,32.31-4.906
	c0.474,2.365-0.119,4.101-0.69,4.73c-0.57,0.631,0.06,2.681-1.832,3.153c-1.893,0.474-1.262,1.577-26.965-1.733
	c-25.703-3.312-42.734-2.839-52.195,0.631c-9.461,3.468-34.061-0.789-35.638-5.204s-4.257-4.642-5.677-10.994
	c-1.419-6.352-17.819-27.798,1.577-59.651c0,0-1.261-4.73-0.157-8.042s7.411-2.366,11.984-4.415
	c4.573-2.05,14.666-12.142,42.024-12.142c27.358,0,39.342,16.242,46.281,26.333C17.96-62.146,30.575-32.186,30.575-32.186z"/>
<g>
	<defs>
		<path id="SVGID_4_" d="M30.575-32.186c0,0,3.312,6.781,2.839,13.561C32.94-11.844,31.837-7.271,32.31-4.906
			c0.474,2.365-0.119,4.101-0.69,4.73c-0.57,0.631,0.06,2.681-1.832,3.153c-1.893,0.474-1.262,1.577-26.965-1.733
			c-25.703-3.312-42.734-2.839-52.195,0.631c-9.461,3.468-34.061-0.789-35.638-5.204s-4.257-4.642-5.677-10.994
			c-1.419-6.352-17.819-27.798,1.577-59.651c0,0-1.261-4.73-0.157-8.042s7.411-2.366,11.984-4.415
			c4.573-2.05,14.666-12.142,42.024-12.142c27.358,0,39.342,16.242,46.281,26.333C17.96-62.146,30.575-32.186,30.575-32.186z"/>
	</defs>
	<clipPath id="SVGID_5_">
		<use xlink:href="#SVGID_4_"  overflow="visible"/>
	</clipPath>
	<linearGradient id="SVGID_6_" gradientUnits="userSpaceOnUse" x1="-32.894" y1="-14.5244" x2="-32.894" y2="-51.7388">
		<stop  offset="0" style="stop-color:#267336"/>
		<stop  offset="1" style="stop-color:#1B5727"/>
	</linearGradient>
	<path clip-path="url(#SVGID_5_)" fill="url(#SVGID_6_)" d="M33.46-29.032c0,0-90.717,4.415-134.712-22.707v18.292
		c0,0,45.099,18.922,136.716,18.922"/>
	<path clip-path="url(#SVGID_5_)" fill="#27246B" d="M33.46-69.558c0,0-90.717,4.415-134.712-22.707v18.292
		c0,0,45.099,18.922,136.716,18.922"/>
</g>
<path fill="#4CA8CC" d="M14.648-68.715c0,0-17.03,7.727-34.849,6.308c-17.819-1.419-26.176-3.233-26.965,3.824
	s4.573,19.83,44.153,31.656c0,0,26.648-8.042,34.69-5.992L14.648-68.715z"/>
<linearGradient id="SVGID_7_" gradientUnits="userSpaceOnUse" x1="-47.2349" y1="-48.8218" x2="31.6787" y2="-48.8218">
	<stop  offset="0" style="stop-color:#2273C8;stop-opacity:0.5"/>
	<stop  offset="1" style="stop-color:#4AA0ED"/>
</linearGradient>
<path fill="url(#SVGID_7_)" d="M14.648-69.715c0,0-17.03,7.727-34.849,6.308c-17.819-1.419-26.176-3.233-26.965,3.824
	s4.573,19.83,44.153,31.656c0,0,26.648-8.042,34.69-5.992L14.648-69.715z"/>
<g opacity="0.6">
	<defs>
		<path id="SVGID_8_" opacity="0.6" d="M30.575-32.186c0,0,3.312,6.781,2.839,13.561C32.94-11.844,31.837-7.271,32.31-4.906
			c0.474,2.365-0.119,4.101-0.69,4.73c-0.57,0.631,0.06,2.681-1.832,3.153c-1.893,0.474-1.262,1.577-26.965-1.733
			c-25.703-3.312-42.734-2.839-52.195,0.631c-9.461,3.468-34.061-0.789-35.638-5.204s-4.257-4.642-5.677-10.994
			c-1.419-6.352-17.819-27.798,1.577-59.651c0,0-1.261-4.73-0.157-8.042s7.411-2.366,11.984-4.415
			c4.573-2.05,14.666-12.142,42.024-12.142c27.358,0,39.342,16.242,46.281,26.333C17.96-62.146,30.575-32.186,30.575-32.186z"/>
	</defs>
	<clipPath id="SVGID_9_">
		<use xlink:href="#SVGID_8_"  overflow="visible"/>
	</clipPath>
	<linearGradient id="SVGID_10_" gradientUnits="userSpaceOnUse" x1="-137.3662" y1="-69.5664" x2="5.1162" y2="-69.5664">
		<stop  offset="0" style="stop-color:#FFFFFF;stop-opacity:0.5"/>
		<stop  offset="1" style="stop-color:#FBFBFB;stop-opacity:0"/>
	</linearGradient>
	<polygon clip-path="url(#SVGID_9_)" fill="url(#SVGID_10_)" points="-62.906,10.699 -137.366,-32.45 -69.344,-149.832 
		5.116,-106.682 	"/>
</g>
<circle fill="#27246B" cx="-37.033" cy="-55.932" r="5.315"/>
<g opacity="0.2">
	<defs>
		<path id="SVGID_11_" opacity="0.2" d="M14.648-69.715c0,0-17.03,7.727-34.849,6.308c-17.819-1.419-26.176-3.233-26.965,3.824
			s4.573,19.83,44.153,31.656c0,0,26.648-8.042,34.69-5.992L14.648-69.715z"/>
	</defs>
	<clipPath id="SVGID_12_">
		<use xlink:href="#SVGID_11_"  overflow="visible"/>
	</clipPath>
	<linearGradient id="SVGID_13_" gradientUnits="userSpaceOnUse" x1="-5.4678" y1="-35.8174" x2="56.877" y2="-35.8174">
		<stop  offset="0" style="stop-color:#FFFFFF;stop-opacity:0.5"/>
		<stop  offset="1" style="stop-color:#FBFBFB;stop-opacity:0"/>
	</linearGradient>
	<polygon opacity="0.6" clip-path="url(#SVGID_12_)" fill="url(#SVGID_13_)" points="-5.468,-25.327 20.956,1.097 56.877,-34.824 
		16.346,-72.731 	"/>
</g>
</svg>
